<svg xmlns="http://www.w3.org/2000/svg" viewBox="0 0 500 500"><g id="freepik--Character--inject-22"><path d="M222.72,412.27s-22.79,4-26.4,3.14-15.94-1.55-17.74.13-15.64,68.74-10.83,67.83S198,445.77,198,445.77c1.21-.23,31.88-5.72,31.88-5.72Z" style="fill:#455a64"></path><path d="M385.51,370s-27-7.57-48.88.9S307,374.56,307,374.56l-54.4,28.75L258,421.53l74.84-29.81Z" style="fill:#263238"></path><path d="M247.54,421.34l106.57-52.15s24.52-1.79,31.4.76,16,20.31,16,28.91,2.29,8.66-2.87,18.08-41.82,28.33-41.82,28.33l-52.14,6.35-40.51-9.88Z" style="fill:#263238"></path><path d="M355.71,369.09a1.1,1.1,0,0,1-.25.1l-.74.25-2.86.89-2.07.63c-.74.26-1.54.58-2.41.9-1.72.67-3.71,1.34-5.82,2.33l-3.33,1.48c-1.15.53-2.32,1.15-3.54,1.76-2.47,1.18-5,2.65-7.68,4.13-5.31,3.09-11,6.71-16.93,10.65s-11.5,7.75-16.66,11.11c-2.59,1.66-5.05,3.25-7.4,4.65-1.18.71-2.29,1.42-3.4,2l-3.18,1.8a120.21,120.21,0,0,1-13.53,6.63l.23-.14c.19-.09.42-.2.7-.35l2.69-1.31,2-.93c.71-.36,1.46-.77,2.28-1.2,1.62-.88,3.51-1.82,5.5-3l3.16-1.83c1.1-.64,2.21-1.35,3.37-2.06,2.34-1.42,4.78-3,7.37-4.69,5.14-3.38,10.73-7.2,16.63-11.15s11.64-7.55,17-10.63c2.71-1.47,5.24-2.93,7.73-4.1,1.23-.6,2.4-1.21,3.56-1.74l3.36-1.45c2.12-1,4.13-1.62,5.87-2.26.87-.31,1.67-.62,2.43-.86l2.08-.59,2.89-.81.76-.19Z" style="fill:#455a64"></path><path d="M263.62,421.85s23.06,3,26.66,2.13,15.94-1.54,17.75.13,15.64,68.74,10.83,67.84-30.28-37.6-30.28-37.6c-1.21-.23-31.87-5.73-31.87-5.73Z" style="fill:#455a64"></path><path d="M255.84,396.38s-113.35-24.33-127.1-21.61S98.11,389,95.82,404.49s-1.63,26.28,15.56,35.45,152.62,10,152.62,10l3.9-29-21.45-7.48,11.88,4.82Z" style="fill:#263238"></path><path d="M263.35,446.6s0-.15.06-.45.12-.77.21-1.34c.2-1.2.48-2.92.85-5.12.77-4.47,1.88-10.89,3.24-18.82l.17.22c-7.71-.86-16.37-4-25.68-7.89s-19.35-8.59-30.08-13a160.43,160.43,0,0,0-16.23-5.83A49.16,49.16,0,0,0,180.11,392a68.58,68.58,0,0,0-14.33,2.18c-4.42,1.08-8.49,2.3-12.24,3.31a84.25,84.25,0,0,1-18.06,3.37l-2.89,0c-.84,0-1.55-.09-2.12-.12l-1.29-.1-.44-.05h.44l1.3.05c.57,0,1.27.1,2.11.06l2.88-.07a87.68,87.68,0,0,0,18-3.52c3.74-1,7.81-2.27,12.24-3.38a69,69,0,0,1,14.42-2.24c5.17-.27,10.56.8,15.93,2.34a159.75,159.75,0,0,1,16.29,5.84c10.75,4.43,20.76,9.16,30.07,13.05s17.9,7.07,25.53,7.95l.2,0,0,.19c-1.43,7.92-2.6,14.33-3.41,18.8-.41,2.19-.73,3.91-.95,5.1-.11.56-.2,1-.26,1.33A4.3,4.3,0,0,1,263.35,446.6Z" style="fill:#455a64"></path><path d="M148.8,397.69c-.06.08-1.11-.73-3-1.77a30.17,30.17,0,0,0-7.67-3,29.77,29.77,0,0,0-8.2-.8c-2.12.09-3.42.32-3.44.23a3.86,3.86,0,0,1,.9-.25,20.05,20.05,0,0,1,2.52-.35A26.62,26.62,0,0,1,146,395.6a19,19,0,0,1,2.08,1.46A3.9,3.9,0,0,1,148.8,397.69Z" style="fill:#455a64"></path><path d="M308.72,430.56s-.25.12-.73.23a12.34,12.34,0,0,1-2.05.28,18.32,18.32,0,0,1-6.78-.87,18.12,18.12,0,0,1-6-3.3,13.2,13.2,0,0,1-1.49-1.44,2.5,2.5,0,0,1-.46-.61c.07-.07.81.72,2.18,1.76a20.23,20.23,0,0,0,12.51,4.09C307.64,430.67,308.7,430.47,308.72,430.56Z" style="fill:#263238"></path><path d="M316.69,465.28c0,.09-1,0-2.49.15a18,18,0,0,0-10.67,4.74c-1.12,1-1.71,1.79-1.78,1.74a7.48,7.48,0,0,1,1.52-2,16.12,16.12,0,0,1,5-3.47,16.29,16.29,0,0,1,5.92-1.37A7.45,7.45,0,0,1,316.69,465.28Z" style="fill:#263238"></path><path d="M283.09,208.3c1.17,1.57,3.48,1.77,5.38,1.28s3.62-1.51,5.53-1.94a9.56,9.56,0,0,1,10.79,6.07c.62,1.83.65,3.8,1.1,5.68.8,3.37,2.91,6.25,4.52,9.31s2.77,6.72,1.52,10c-1.4,3.62-5.55,5.6-9.43,5.52s-7.52-1.81-10.87-3.76-6.6-4.17-10.29-5.39-8-1.3-11.19.89A101.74,101.74,0,0,1,269,217.38" style="fill:#263238"></path><path d="M305.57,205s-.17.07-.44.25a2,2,0,0,0-.77,1.13,2,2,0,0,0,.54,2,2.92,2.92,0,0,0,2.64.86,4,4,0,0,0,2.77-2,4.51,4.51,0,0,0,.12-3.91,6.31,6.31,0,0,0-3-3.22,11.24,11.24,0,0,0-9.53-.06,9.13,9.13,0,0,0-3.37,3c-.86,1.2-1.54,2.46-2.3,3.57a11.62,11.62,0,0,1-2.49,2.81,5.59,5.59,0,0,1-2.85,1.22,4.57,4.57,0,0,1-2.33-.28,3.23,3.23,0,0,1-1.22-.83,1.35,1.35,0,0,1-.3-.42,4.21,4.21,0,0,0,1.6,1.06,5,5,0,0,0,4.87-1,11.41,11.41,0,0,0,2.36-2.76c.73-1.1,1.39-2.36,2.27-3.61a9.42,9.42,0,0,1,3.53-3.19,11.6,11.6,0,0,1,10,.06,6.74,6.74,0,0,1,3.25,3.5,4.93,4.93,0,0,1-.2,4.3,4.41,4.41,0,0,1-3.09,2.14,3.26,3.26,0,0,1-2.91-1,2.3,2.3,0,0,1-.52-2.27,2,2,0,0,1,.92-1.16A1.16,1.16,0,0,1,305.57,205Z" style="fill:#263238"></path><path d="M300.54,228.24a9.75,9.75,0,0,0,.51-4.31,13.26,13.26,0,0,0-1.47-4.47,11.76,11.76,0,0,0-3.64-4.39,8.8,8.8,0,0,0-5.53-1,26.89,26.89,0,0,1-4.84.12,6.89,6.89,0,0,1-3.12-1,4.31,4.31,0,0,1-.69-.57c-.14-.16-.2-.24-.19-.25s.33.27,1,.64a6.94,6.94,0,0,0,3,.83,29.57,29.57,0,0,0,4.78-.23,13.26,13.26,0,0,1,2.88,0,6.86,6.86,0,0,1,3,1,12,12,0,0,1,3.79,4.61,12.79,12.79,0,0,1,1.4,4.65,8,8,0,0,1-.35,3.27,6,6,0,0,1-.35.82C300.61,228.16,300.56,228.25,300.54,228.24Z" style="fill:#455a64"></path><path d="M192.55,383.56c22.65,17.35,55.37,34.89,75.35,30.38,7.66-1.73,21.1-16.66,27.74-20.85s12.28-10.28,14.95-17.67L301.08,359,200.31,381.17Z" style="fill:#40AD02"></path><path d="M325.55,243.56s4.37,4.76,5.05,7.51,12,37.05,12,37.05,22.58,61.9,11.58,75.47c-5.4,6.67-32.32,12.68-45.5,8.51L304,334.2a10.31,10.31,0,0,1,11.84-4.27l-10.32-23,.34-35.68,16.52-27.1" style="fill:#40AD02"></path><path d="M171.08,265.35,149,340.09s-6,16.34-6,20.32-.79,10.76,6.38,14.75,16.33,11.32,25.5,7,17.93-6.66,17.53-14.23-2.79-23.11-2.79-23.11l9.56-46.21Z" style="fill:#40AD02"></path><path d="M326.21,244.18s-20.69-20.54-57.13-22.94l-42.76,2.37c-1.35.53-37.18,11.37-46.09,21.74-6.53,7.59-9.15,20-9.15,20l26.27,53.9,3.45,44.34-8.25,20,118-8.14-5-89.22Z" style="fill:#40AD02"></path><path d="M163.29,337.39c0,.09-1.34.25-3.41,1a21,21,0,0,0-7.24,4.34,20.67,20.67,0,0,0-4.83,6.92c-.86,2-1.12,3.36-1.21,3.34a3.26,3.26,0,0,1,.12-1,15.53,15.53,0,0,1,.75-2.52A19.11,19.11,0,0,1,159.77,338a16.5,16.5,0,0,1,2.56-.57A3.06,3.06,0,0,1,163.29,337.39Z" style="fill:#263238"></path><path d="M163.12,338a29.08,29.08,0,0,0-4.33-1.12,27.41,27.41,0,0,0-4.48.12,9.2,9.2,0,0,1,8.81,1Z" style="fill:#263238"></path><path d="M183.89,361.54a2.89,2.89,0,0,1-.46.79,17.24,17.24,0,0,1-1.55,2,23.89,23.89,0,0,1-6.49,5.09,24.16,24.16,0,0,1-7.84,2.58,17.93,17.93,0,0,1-2.5.19,2.73,2.73,0,0,1-.91-.06c0-.09,1.3-.12,3.35-.5a26.21,26.21,0,0,0,14.12-7.55C183.06,362.55,183.81,361.48,183.89,361.54Z" style="fill:#263238"></path><g style="opacity:0.30000000000000004"><path d="M165,372.83a16.91,16.91,0,0,0,17.69-6c1.35-1.8,2.67-4.11,4.92-4.32,1.08-.11,2.66,0,2.77-1.08.06-.62-.53-1.11-1.11-1.34a5.68,5.68,0,0,0-5.31,1.16,26.7,26.7,0,0,0-3.81,4.19c-3.43,4.1-10.11,5.59-15.15,7.4"></path></g><path d="M194.71,313.62c-.15,0-1.37-8.64-2.73-19.33s-2.36-19.39-2.21-19.41,1.36,8.64,2.72,19.34S194.85,313.6,194.71,313.62Z" style="fill:#263238"></path><path d="M338.58,343.67a29.89,29.89,0,0,0-4.28-4.53,33.81,33.81,0,0,0-5.64-3.71c-2.25-1.2-4.82-2.35-7.54-3.52a22.2,22.2,0,0,0-7.85-2.37,8.38,8.38,0,0,0-1.82.1c-.57.09-1.13.29-1.69.43a12.71,12.71,0,0,0-2.93,1.05,7.35,7.35,0,0,0-2.95,3.3c-.48,1-.66,1.54-.71,1.52s0-.15.1-.43a8.71,8.71,0,0,1,.43-1.18,7.26,7.26,0,0,1,2.95-3.53,12.23,12.23,0,0,1,3-1.14,17,17,0,0,1,1.72-.47,8.7,8.7,0,0,1,1.92-.13,22.21,22.21,0,0,1,8,2.37c2.71,1.18,5.29,2.34,7.55,3.58a31.73,31.73,0,0,1,5.66,3.85,20.78,20.78,0,0,1,3.14,3.38c.33.44.54.81.69,1.05A1.69,1.69,0,0,1,338.58,343.67Z" style="fill:#263238"></path><path d="M342.47,336.32a19.78,19.78,0,0,1-2.62-1.55,30.64,30.64,0,0,0-6.5-3.22,13.78,13.78,0,0,0-7.11-.48,21.54,21.54,0,0,0-2.84,1,2.31,2.31,0,0,1,.66-.48,8.67,8.67,0,0,1,2.09-.86,13.19,13.19,0,0,1,7.36.34,26.35,26.35,0,0,1,6.54,3.41A16,16,0,0,1,342.47,336.32Z" style="fill:#263238"></path><path d="M190.3,261.11a20.06,20.06,0,0,1-.56-2.63,45.22,45.22,0,0,0-4.31-12.15,20.07,20.07,0,0,1-1.23-2.4,10.09,10.09,0,0,1,1.55,2.22,34.06,34.06,0,0,1,2.76,5.92,34.92,34.92,0,0,1,1.59,6.34A10.9,10.9,0,0,1,190.3,261.11Z" style="fill:#263238"></path><path d="M316.87,246.75c.06.05-.8,1.25-2.1,3.25a77.22,77.22,0,0,0-4.55,8.1,74.42,74.42,0,0,0-3.47,8.63c-.75,2.26-1.14,3.68-1.22,3.66a3.58,3.58,0,0,1,.16-1c.14-.65.37-1.59.71-2.74a57.37,57.37,0,0,1,3.35-8.74,58.7,58.7,0,0,1,4.72-8.09c.69-1,1.27-1.75,1.7-2.27A3.76,3.76,0,0,1,316.87,246.75Z" style="fill:#263238"></path><path d="M299.41,381.93s-.07.06-.21.13l-.66.33c-.58.29-1.44.71-2.56,1.22-2.22,1-5.47,2.5-9.55,4.15-8.13,3.27-19.72,7.38-33.12,8.87a82.73,82.73,0,0,1-18.92-.11,67,67,0,0,1-15-3.62,54.47,54.47,0,0,1-9.4-4.48c-1.08-.6-1.84-1.18-2.38-1.53l-.61-.42a1.31,1.31,0,0,1-.2-.15s.08,0,.23.11l.63.37c.57.32,1.34.88,2.43,1.45a59.18,59.18,0,0,0,9.43,4.31A68.13,68.13,0,0,0,234.45,396a83.52,83.52,0,0,0,18.8.07c13.33-1.48,24.89-5.52,33.05-8.69,4.08-1.61,7.35-3,9.6-4l2.59-1.13.68-.29Z" style="fill:#263238"></path><path d="M258.05,249.68a3.94,3.94,0,0,1-.94.53,8.18,8.18,0,0,1-1.16.52,14.15,14.15,0,0,1-1.58.57,23.73,23.73,0,0,1-4.29.91,26.84,26.84,0,0,1-5.38,0,26.49,26.49,0,0,1-5.25-1.17,23.15,23.15,0,0,1-4-1.82,16.47,16.47,0,0,1-1.43-.9,10.4,10.4,0,0,1-1-.76,5.34,5.34,0,0,1-.8-.72c.07-.09,1.25.9,3.43,2.06a25.61,25.61,0,0,0,4,1.68A25.86,25.86,0,0,0,250,251.73a25.41,25.41,0,0,0,4.24-.78C256.64,250.29,258,249.58,258.05,249.68Z" style="fill:#fff"></path><path d="M305,279.38a2.08,2.08,0,0,1,.1.52c.06.4.12.89.2,1.48.16,1.29.37,3.16.6,5.47.46,4.61,1,11,1.42,18.08s.63,13.48.71,18.13c0,2.32.06,4.19,0,5.49,0,.6,0,1.1,0,1.5a1.93,1.93,0,0,1,0,.52,1.81,1.81,0,0,1-.06-.52c0-.4-.05-.89-.08-1.49-.05-1.38-.13-3.23-.22-5.49-.17-4.64-.44-11-.86-18.11s-.9-13.46-1.27-18.08c-.18-2.26-.32-4.11-.43-5.48l-.1-1.49A1.84,1.84,0,0,1,305,279.38Z" style="fill:#263238"></path><g style="opacity:0.30000000000000004"><path d="M200.09,354.44c8.56-.16,17.62-.19,25,4.2,4.72,2.82,8.29,7.23,12.84,10.31a27.82,27.82,0,0,0,19.39,4.46c5.59-.81,10.92-3.34,16.57-3.44,5-.08,9.83,1.76,14.72,2.85a50.62,50.62,0,0,0,23-.22c-1.85-3.19-5.56-4.71-9-6a457.41,457.41,0,0,0-103.14-24.71"></path></g><g style="opacity:0.30000000000000004"><path d="M160,336.78c-1.46.19-3.25.22-4-1a2.65,2.65,0,0,1,1.13-3.41,7.77,7.77,0,0,1,3.85-.82c-1.67-1.43-.61-4.28,1.1-5.66s4-2.14,5.27-3.92c1-1.41,1.34-3.31,2.62-4.49,1.78-1.65,4.66-1.23,6.81-2.36,2.77-1.45,3.57-4.95,4.27-8a83.85,83.85,0,0,1,9.87-23.5c2.65,18.68,5.91,38.7,6.21,57.56,0,1.38-2.39,2.16-3.06,3.36-.88,1.58-2.7,2.35-4.42,2.9-4.13,1.3-8.63,1.86-12.79.64s-7.87-4.49-8.79-8.72l-.11-.92"></path></g><g style="opacity:0.30000000000000004"><path d="M328.55,335.16a26,26,0,0,1,14.6,17.72c.24,1,.54,2.25,1.54,2.62a2.06,2.06,0,0,0,2.47-1.6,5.16,5.16,0,0,0-.52-3.23A29.59,29.59,0,0,0,323,332.89"></path></g><path d="M228.71,339.83l.24,0,.72-.06,2.82-.2,10.7-.71,38.19-2.4-.21.24c-.84-15.47-1.85-33.74-2.92-53.25,0-.3,0-.59,0-.88l.26.25a493.13,493.13,0,0,0-63.4,5.58l.17-.24c2.25,12.46,4.09,22.67,5.38,29.78.63,3.53,1.11,6.3,1.45,8.2.16.93.28,1.64.36,2.15s.11.73.11.73-.07-.24-.17-.72l-.42-2.14c-.36-1.9-.89-4.65-1.56-8.18-1.33-7.1-3.23-17.3-5.56-29.75l0-.21.21,0a479.72,479.72,0,0,1,63.46-5.69h.25l0,.25c0,.29,0,.59,0,.88,1.05,19.51,2,37.78,2.85,53.25v.23h-.22l-38.2,2.21-10.71.59-2.82.13-.72,0Z" style="fill:#fff"></path><path d="M235.31,334.51a9.84,9.84,0,0,1-.62-1.67c-.36-1.08-.85-2.67-1.43-4.63-1.16-3.92-2.61-9.39-3.94-15.5S227.06,301,226.49,297c-.29-2-.5-3.67-.61-4.81a13.47,13.47,0,0,1-.14-1.78,10.49,10.49,0,0,1,.34,1.75c.19,1.21.46,2.83.77,4.78.67,4,1.66,9.59,3,15.68s2.72,11.57,3.78,15.51c.52,1.91.95,3.49,1.28,4.67A13.26,13.26,0,0,1,235.31,334.51Z" style="fill:#fff"></path><path d="M243.1,335.93a2.58,2.58,0,0,1-.08-.47l-.15-1.34c-.11-1.25-.27-2.92-.46-4.94-.38-4.17-.94-9.93-1.65-16.28s-1.46-12.09-2-16.25c-.27-2-.49-3.67-.65-4.91-.06-.54-.12-1-.16-1.34a1.61,1.61,0,0,1,0-.48,1.59,1.59,0,0,1,.12.46c.07.36.16.8.26,1.32.21,1.16.49,2.83.81,4.9.65,4.14,1.46,9.88,2.17,16.24s1.22,12.13,1.51,16.31c.15,2.09.25,3.79.3,5,0,.53,0,1,0,1.35A1.31,1.31,0,0,1,243.1,335.93Z" style="fill:#fff"></path><path d="M256.56,340.58a1.84,1.84,0,0,1-.12-.53c-.06-.42-.14-.93-.24-1.56-.21-1.42-.51-3.35-.86-5.7-.74-4.82-1.89-11.45-3.47-18.72s-3.28-13.78-4.6-18.47c-.65-2.29-1.19-4.17-1.58-5.55-.18-.61-.32-1.11-.43-1.52a1.93,1.93,0,0,1-.11-.53,2.46,2.46,0,0,1,.21.5l.52,1.49c.44,1.29,1,3.17,1.75,5.5,1.41,4.68,3.17,11.19,4.75,18.47s2.67,13.94,3.33,18.77c.32,2.42.56,4.38.69,5.74l.14,1.56A2.08,2.08,0,0,1,256.56,340.58Z" style="fill:#fff"></path><path d="M267.6,337.83a2.11,2.11,0,0,1-.16-.48c-.1-.38-.21-.85-.36-1.41-.31-1.3-.72-3-1.23-5.17-1-4.37-2.39-10.43-3.87-17.12-2.58-11.64-4.65-21.38-5.05-23.72l.1,0c-.25.28-.38.42-.4.4a2.73,2.73,0,0,1,.32-.47l.06-.08,0,.11c.63,2.29,2.87,12,5.45,23.63,1.48,6.69,2.79,12.76,3.72,17.15l1.07,5.21c.1.57.19,1,.26,1.42A1.63,1.63,0,0,1,267.6,337.83Z" style="fill:#fff"></path><path d="M274,335c-.14,0-1.27-10.58-2.53-23.67s-2.15-23.7-2-23.71,1.27,10.58,2.52,23.66S274.14,335,274,335Z" style="fill:#fff"></path><path d="M243.83,328.46a6.33,6.33,0,0,1,8.47-8.33c2.48,1.18,3.92,3.81,4.8,6.4a27.91,27.91,0,0,1,1.27,12.53,8.61,8.61,0,0,1-2.22,5.34" style="fill:#eb996e"></path><path d="M163.56,335.48,154.05,350s-1.62,17.58,11.12,18.55,16.7-7.74,16.7-7.74V344.67Z" style="fill:#ffbe9d"></path><path d="M223.94,317.94c-1.16-2.29-4-3.35-6.54-3.13a17.32,17.32,0,0,0-7.11,2.76c-2.21,1.3-4.93,4.6-7.42,5.22l15.18,4.67c1.88-.87,4.28-1.86,5.38-3.61A6.16,6.16,0,0,0,223.94,317.94Z" style="fill:#ffbe9d"></path><path d="M185.15,334.57s-1.39,11.31,2.93,12.81,10.15-1.17,10.15-1.17l33.05,5.84s6.05,6.64,14.2,7,13.11-9.4,13.11-9.4l.9-17.45L237,329.69s-26-5.44-28.11-6.1-14.37-4.49-16.71-4.61-5.16,6-5.16,6Z" style="fill:#263238"></path><path d="M240,330.81a12,12,0,0,0-4.35.24,3.63,3.63,0,0,0-1.15,6.72,11.86,11.86,0,0,0,5,1.7l7.81,1.41a9.9,9.9,0,0,0,3,.23,3.34,3.34,0,0,0,2.51-1.51,2,2,0,0,0-.55-2.69" style="fill:#455a64"></path><path d="M270.15,335.65l42.45.93s17.29,9.2,15.57,21.22-17.36,14.3-17.36,14.3l-42.19-11Z" style="fill:#ffbe9d"></path><path d="M200.93,320.76c-1.66-.4-3.25-.79-5-1.06s-3.91.34-4.4,2a4,4,0,0,0,1,3.37c3.08,4.11,8.47,5.85,13.6,6.12a7.63,7.63,0,0,0,3.91-.56,3.07,3.07,0,0,0,1.77-3.25A4.51,4.51,0,0,0,209.6,325a30.7,30.7,0,0,0-8.67-4.23" style="fill:#455a64"></path><path d="M271.85,346.41c1.55-2.78-2.28-6.89-2.28-6.89a15.25,15.25,0,0,0,1.74-5.39c.31-2.94-4.86-5.48-4.86-5.48l-9.89-2.17s-13,1.08-15.13,3.25,0,5,0,5l.46.84c.87,1.5,10.47.46,10.47.46s4.76.88,5.21,1.3,2.38,3.72-.39,4.57c-.66.2-17.72,2-20.65,2.19s-4.34,1.35-4.36,5c0,2.33,4,3.52,4.68,3.71-.58-.15-3.56-.79-4.53,1.7-1.08,2.76,4.32,4.63,4.32,4.63a1.25,1.25,0,0,1,.93,1.86c-1.59,4.25,5.25,5.48,5.25,5.48l15-.52s6.64,1.55,10-.71,1.39-7.17,3.86-10.74S270.31,349.19,271.85,346.41Z" style="fill:#ffbe9d"></path><path d="M262,348.92a3.58,3.58,0,0,1-1,.3c-.63.16-1.56.37-2.7.61-2.28.47-5.46,1.07-9,1.61s-6.73.93-9,1.16c-1.16.12-2.1.2-2.75.24a4.19,4.19,0,0,1-1,0,3.47,3.47,0,0,1,1-.21l2.74-.4c2.31-.33,5.5-.78,9-1.32s6.69-1.07,9-1.46L261,349A4.75,4.75,0,0,1,262,348.92Z" style="fill:#eb996e"></path><path d="M264.44,356.91a4.64,4.64,0,0,1-1,.37c-.64.21-1.57.48-2.72.77a64.7,64.7,0,0,1-9.2,1.62,63.89,63.89,0,0,1-9.32.3c-1.2-.05-2.16-.12-2.83-.2a3.52,3.52,0,0,1-1-.17c0-.08,1.48,0,3.85,0a84.73,84.73,0,0,0,18.43-1.91C263,357.2,264.41,356.83,264.44,356.91Z" style="fill:#eb996e"></path><path d="M269.88,331s.22.1.53.43a4,4,0,0,1,.9,1.71,6,6,0,0,1,0,3,16.45,16.45,0,0,1-1.49,3.52l-.07-.29a6.61,6.61,0,0,1,2.34,6.88,6.42,6.42,0,0,1-1.12,2.32l-.11-.4a3.45,3.45,0,0,1,2,2.34,5.27,5.27,0,0,1,0,2.79,28.86,28.86,0,0,1-1.85,4.15,8.06,8.06,0,0,0-.82,2.82c-.06.7,0,1.08,0,1.08s-.05-.08-.1-.27a4.53,4.53,0,0,1-.08-.81,7.59,7.59,0,0,1,.7-2.95,34.2,34.2,0,0,0,1.72-4.13,4.76,4.76,0,0,0,0-2.54,2.93,2.93,0,0,0-1.66-2l-.32-.12.2-.27a6.25,6.25,0,0,0,1-2.14,6.15,6.15,0,0,0-.18-3.66,6.3,6.3,0,0,0-1.94-2.72l-.16-.13.09-.17a16.55,16.55,0,0,0,1.53-3.4,5.94,5.94,0,0,0,.15-2.83A4.85,4.85,0,0,0,269.88,331Z" style="fill:#eb996e"></path><path d="M248.08,342.8a2.46,2.46,0,0,1-.54.14l-1.55.32c-.67.14-1.5.29-2.47.4s-2.07.3-3.3.38-2.57.21-4,.22-3,0-4.63,0A77.24,77.24,0,0,1,221.05,343a75.92,75.92,0,0,1-10.21-2.81c-1.52-.58-3-1.11-4.3-1.72s-2.54-1.16-3.64-1.72-2.06-1.11-2.91-1.59-1.57-.92-2.15-1.3l-1.32-.88a2.77,2.77,0,0,1-.44-.33,2,2,0,0,1,.5.25l1.37.78c.59.36,1.31.78,2.18,1.23s1.82,1,2.94,1.51,2.31,1.12,3.64,1.65,2.77,1.1,4.29,1.66a72.4,72.4,0,0,0,20.59,4c1.62.05,3.16.12,4.6.07s2.78-.08,4-.16,2.32-.2,3.29-.3,1.8-.21,2.48-.31l1.56-.22A1.83,1.83,0,0,1,248.08,342.8Z" style="fill:#455a64"></path><path d="M160.35,348.6s-2.39-6.16-1.39-7.74,5-5,5-5-1.39-5,1.59-6.15l3-1.19s-.55-5.56,2.6-7.35a14.32,14.32,0,0,1,7.32-1.39s6.1-10.78,9.53-9.92S204.82,317,205,321.2s-1.46,4.53-3.94,4.2c-1.68-.22-10.56-3.21-10.56-3.21L185,327.13l3.39,3.2s9.73,5,6.75,8.94-6.75,1.59-9.93.2-8.34-6.36-8.34-6.36l6.36,9.33s13.6,5.63,13.67,9.93a4.73,4.73,0,0,1-3.94,4.77s2.1,3.73-1.43,4.54-11.28,0-11.28,0l-9.06-3.95Z" style="fill:#ffbe9d"></path><path d="M186.16,362a6.34,6.34,0,0,1-1.34,0c-.86,0-2.1-.1-3.63-.26a66,66,0,0,1-11.78-2.37,6.26,6.26,0,0,1-3-1.76,17.42,17.42,0,0,1-1.78-2.7l-2.7-4.66-1.79-3.17a6.35,6.35,0,0,1-.59-1.2,8,8,0,0,1,.77,1.1l1.92,3.08,2.81,4.61a17.34,17.34,0,0,0,1.74,2.6,5.89,5.89,0,0,0,2.81,1.6,77.45,77.45,0,0,0,11.67,2.5c1.52.21,2.75.34,3.61.43A7,7,0,0,1,186.16,362Z" style="fill:#eb996e"></path><path d="M192.77,357.8a5.78,5.78,0,0,1-1.15-.11,24.28,24.28,0,0,1-3.07-.64,34.16,34.16,0,0,1-4.41-1.54,33.53,33.53,0,0,1-9.53-6.26,31.43,31.43,0,0,1-3.16-3.43,23.91,23.91,0,0,1-1.82-2.56,5.34,5.34,0,0,1-.55-1c.08-.06.95,1.33,2.65,3.34a37.09,37.09,0,0,0,3.21,3.31,36.4,36.4,0,0,0,9.4,6.17,35.87,35.87,0,0,0,4.31,1.62C191.17,357.46,192.79,357.7,192.77,357.8Z" style="fill:#eb996e"></path><path d="M276.1,204.3c1.39-1.69,4.32-1.41,5.74.24a5.89,5.89,0,0,1,.58,6.16,12.58,12.58,0,0,1-4.35,4.79,28.92,28.92,0,0,1-4.22,2.5,5,5,0,0,1-2.56.67c-1.9-.16-3.1-2.35-2.85-4.24a8.88,8.88,0,0,1,2.87-4.82,18.1,18.1,0,0,0,3.68-4.34" style="fill:#40AD02"></path><path d="M211.29,197.21l-11.87-4.93a11.06,11.06,0,0,1-6.81-10.11l-.11-11.58L202,161.1l23,8.29L222.63,185S215.88,196.43,211.29,197.21Z" style="fill:#40AD02"></path><path d="M253.15,127.41c-1.31-4.5-7.18-9.49-12.13-10.72a16.06,16.06,0,0,0-14.2,3.4c-3.79,3.4-5.28,8.39-8.53,12.23-6.25,7.38-18.07,9.51-24,17.08-5.42,6.88-4.38,16.69.31,24,2.05,3.18,4.79,6.27,5,10,.12,2.23-.73,4.41-.74,6.64,0,5.11,5.06,9.8,10.69,9.83" style="fill:#263238"></path><path d="M250.52,125.59c1.58-4.14,9.29-4.35,13.24-2.34s6.43,6,8.71,9.79q5.16,8.55,10.3,17.11c2.64,4.38,5.29,8.81,6.94,13.65s2.22,10.2.64,15.07c-1.72,5.29-5.84,9.6-7.3,15-1,3.6-.7,7.44-1.71,11s-5.57,10.29-12.22,10.27" style="fill:#263238"></path><path d="M272.3,160.54l-1.05,67a22.39,22.39,0,0,1-22.68,22h0A22.38,22.38,0,0,1,226.48,228l-.31-8.9s-17.48-1.87-18.51-19.21c-.5-8.36-.13-25.63.39-41.28a32.5,32.5,0,0,1,32.49-31.42h0A32.14,32.14,0,0,1,272.3,160.54Z" style="fill:#ffbe9d"></path><path d="M226.15,219.12a40.39,40.39,0,0,0,22.31-7.5s-4.75,12.74-22.14,12Z" style="fill:#eb996e"></path><path d="M214.83,170.58a2.48,2.48,0,0,0,2.51,2.38,2.36,2.36,0,0,0,2.44-2.35,2.47,2.47,0,0,0-2.5-2.39A2.37,2.37,0,0,0,214.83,170.58Z" style="fill:#263238"></path><path d="M212.21,167.09c.32.31,2.13-1.17,4.8-1.29s4.68,1.12,5,.78c.14-.15-.2-.72-1.08-1.3a6.85,6.85,0,0,0-4-1,6.5,6.5,0,0,0-3.8,1.43C212.3,166.36,212.05,167,212.21,167.09Z" style="fill:#263238"></path><path d="M240.87,170.58a2.48,2.48,0,0,0,2.51,2.38,2.37,2.37,0,0,0,2.45-2.35,2.49,2.49,0,0,0-2.51-2.39A2.38,2.38,0,0,0,240.87,170.58Z" style="fill:#263238"></path><path d="M238.43,166.35c.32.31,2.14-1.17,4.8-1.29s4.68,1.12,5,.78c.13-.15-.21-.72-1.09-1.3a6.77,6.77,0,0,0-4-1,6.46,6.46,0,0,0-3.8,1.43C238.53,165.61,238.27,166.21,238.43,166.35Z" style="fill:#263238"></path><path d="M229.69,186.57c0-.15-1.66-.36-4.36-.57-.69,0-1.34-.15-1.48-.6a3.51,3.51,0,0,1,.36-2c.57-1.68,1.15-3.44,1.77-5.28,2.45-7.51,4.18-13.68,3.88-13.77s-2.53,5.91-5,13.42c-.58,1.85-1.15,3.62-1.68,5.31a4,4,0,0,0-.23,2.69,1.73,1.73,0,0,0,1.17.94,5.06,5.06,0,0,0,1.16.11C228,186.79,229.69,186.73,229.69,186.57Z" style="fill:#263238"></path><path d="M239,155c.31.71,2.95.21,6.1.41s5.72.9,6.1.23c.16-.32-.31-1-1.37-1.62a10.59,10.59,0,0,0-9.29-.49C239.44,154.1,238.89,154.7,239,155Z" style="fill:#263238"></path><path d="M211.71,155.72c.5.58,2.31-.13,4.52-.27s4.09.22,4.49-.44c.18-.31-.15-.9-1-1.44a6.33,6.33,0,0,0-3.72-.82,6.23,6.23,0,0,0-3.54,1.39C211.72,154.8,211.49,155.44,211.71,155.72Z" style="fill:#263238"></path><path d="M269.58,174.29c-2.63,5.91-8.54,6.55-8.61-1.15,0-3.65.86-7.42-.31-10.87-1.74-5.13-7.28-7.72-11.27-11.38A23.19,23.19,0,0,1,242.24,131c.32-2.35,1.18-4.86,3.23-6,1.81-1,4.07-.78,6.1-.27,12.38,3.12,21.78,14.33,24.68,26.77s2.32,29.11-3.72,40.36" style="fill:#263238"></path><path d="M245.13,125.14a30.46,30.46,0,0,1-19.77,19c-2.74.82-5.6,1.25-8.3,2.22s-5.3,2.61-6.62,5.15c-.55,1.06-1.53,3.92-2.26,4.86s-1.44-.1-2.46-.71c-1.25-.74-1.08-2.6-.58-4,1.61-4.45,4.82-8.09,8.06-11.53,4.17-4.44,8.57-8.8,13.93-11.7s11.83-4.24,17.6-2.31" style="fill:#263238"></path><path d="M227.31,195.22c-.22-.68,1.9-2,4.72-2.84s5.29-1,5.51-.35-1.91,2-4.73,2.84S227.52,195.91,227.31,195.22Z" style="fill:#263238"></path><path d="M237.62,173c.08-.05.5.61,1.45,1.37a7.59,7.59,0,0,0,4.31,1.7,7.71,7.71,0,0,0,4.47-1.2c1-.65,1.52-1.26,1.59-1.2s-.35.73-1.38,1.5a7.19,7.19,0,0,1-9.23-.52A4,4,0,0,1,237.62,173Z" style="fill:#eb996e"></path><path d="M211.3,173.35c.06-.06.49.39,1.34.89a6.69,6.69,0,0,0,7.18-.21c.81-.54,1.22-1,1.29-1s-.27.6-1.08,1.26a6.33,6.33,0,0,1-7.59.21C211.6,173.94,211.25,173.38,211.3,173.35Z" style="fill:#eb996e"></path><path d="M239.78,176.81a8.18,8.18,0,0,1,1.47.38,9.53,9.53,0,0,0,6.94-1,10.65,10.65,0,0,1,1.31-.78c.05,0-.32.53-1.11,1.09a8.3,8.3,0,0,1-7.24,1A3.08,3.08,0,0,1,239.78,176.81Z" style="fill:#eb996e"></path><path d="M212.22,176.61a16,16,0,0,0,3.33.35,16.39,16.39,0,0,0,3.23-.86,5.36,5.36,0,0,1-6.56.51Z" style="fill:#eb996e"></path><path d="M252.85,106.18c.06.07-.83.76-1.83,2.21a11.71,11.71,0,0,0-2.09,6.42,18.86,18.86,0,0,0,1.43,6.7,20,20,0,0,1,1,2.73,13.06,13.06,0,0,1-1.31-2.59,17,17,0,0,1-1.61-6.85,11.26,11.26,0,0,1,2.31-6.63,9.81,9.81,0,0,1,1.48-1.55A2.17,2.17,0,0,1,252.85,106.18Z" style="fill:#263238"></path><path d="M221.45,106.85a1.78,1.78,0,0,1,.58-.06,7.6,7.6,0,0,1,1.69.18,6.72,6.72,0,0,1,2.47,1.08,5.49,5.49,0,0,1,2.08,2.9,4.32,4.32,0,0,1-.87,4.19,4.09,4.09,0,0,1-2.12,1.29,3.22,3.22,0,0,1-2.59-.49,3.55,3.55,0,0,1-1.53-2.31,3.11,3.11,0,0,1,1-2.72c1.49-1.4,3.57-1.76,5.54-2a19.89,19.89,0,0,1,11,2.32,24,24,0,0,1,7.08,5.88,28.51,28.51,0,0,1,3.41,5.19c.33.66.57,1.17.71,1.53a2.32,2.32,0,0,1,.2.55,3.44,3.44,0,0,1-.29-.51c-.18-.34-.45-.84-.8-1.47a31.23,31.23,0,0,0-3.51-5,23.8,23.8,0,0,0-7-5.69,19.63,19.63,0,0,0-10.72-2.23c-1.92.2-3.93.59-5.23,1.82a2.58,2.58,0,0,0-.85,2.28,3.09,3.09,0,0,0,1.31,2,2.77,2.77,0,0,0,2.22.43,3.7,3.7,0,0,0,1.9-1.13,3.92,3.92,0,0,0,.83-3.8,5.26,5.26,0,0,0-1.89-2.77,6.83,6.83,0,0,0-2.35-1.12A14,14,0,0,0,221.45,106.85Z" style="fill:#263238"></path><path d="M192.69,144.78a2.3,2.3,0,0,1,.53-.88,3.7,3.7,0,0,1,2.71-1.13,3.57,3.57,0,0,1,2.07.63,3.76,3.76,0,0,1,1.44,2.14,4.68,4.68,0,0,1-.2,3,4.43,4.43,0,0,1-2.35,2.33,5.59,5.59,0,0,1-3.65.3,6.08,6.08,0,0,1-3.26-2.24,7.37,7.37,0,0,1-1.5-4,9.65,9.65,0,0,1,.75-4.43,12.22,12.22,0,0,1,6.81-6.55,12.07,12.07,0,0,1,5-.81,40.48,40.48,0,0,1,5.13.9,10.73,10.73,0,0,0,5,.1,7.67,7.67,0,0,0,3.91-2.78c2-2.53,3.26-5.58,5.44-7.79a19.82,19.82,0,0,1,7.14-4.85,18.79,18.79,0,0,1,7.41-1.33,19.48,19.48,0,0,1,10.28,3.29,14.24,14.24,0,0,1,3,2.59s-.08-.05-.21-.16l-.57-.51a20.72,20.72,0,0,0-2.35-1.76,19.71,19.71,0,0,0-10.18-3.08,18.73,18.73,0,0,0-7.24,1.36,19.33,19.33,0,0,0-7,4.78,21.81,21.81,0,0,0-2.72,3.7,34.87,34.87,0,0,1-2.68,4.08,8.12,8.12,0,0,1-4.16,3,11.32,11.32,0,0,1-5.24-.09,41.14,41.14,0,0,0-5.06-.9,11.53,11.53,0,0,0-4.82.78,11.76,11.76,0,0,0-6.56,6.25,9.3,9.3,0,0,0-.74,4.21,7,7,0,0,0,1.39,3.75,5.74,5.74,0,0,0,3,2.11,5.15,5.15,0,0,0,3.39-.25,4.12,4.12,0,0,0,2.2-2.12,4.42,4.42,0,0,0,.22-2.76,3.54,3.54,0,0,0-1.3-2,3.39,3.39,0,0,0-1.93-.62,3.6,3.6,0,0,0-2.63,1A5.15,5.15,0,0,0,192.69,144.78Z" style="fill:#263238"></path><path d="M268.31,131.46a5.27,5.27,0,0,1-.21-1.12c-.1-.84-.23-1.86-.37-3.07s-.32-2.87-.5-4.55a5.52,5.52,0,0,0-.78-2.44,3.43,3.43,0,0,0-2.3-1.28,12,12,0,0,0-5.41.52,13.62,13.62,0,0,0-4,2.09,21.17,21.17,0,0,0-2.94,3,4,4,0,0,1,.58-1,11.33,11.33,0,0,1,2.13-2.27,13.13,13.13,0,0,1,4-2.25,12.09,12.09,0,0,1,5.66-.58,3.86,3.86,0,0,1,2.63,1.5,6,6,0,0,1,.84,2.67c.14,1.69.27,3.23.38,4.58s.16,2.24.21,3.08A4.55,4.55,0,0,1,268.31,131.46Z" style="fill:#263238"></path><path d="M299.46,155.76s-.06.25-.29.65a6.94,6.94,0,0,1-1.23,1.51,7.9,7.9,0,0,1-11.57-.67,6.74,6.74,0,0,1-1-1.63c-.19-.42-.25-.67-.22-.68a22,22,0,0,0,1.54,2.07,7.88,7.88,0,0,0,11.05.63A18.8,18.8,0,0,0,299.46,155.76Z" style="fill:#263238"></path><path d="M235.33,215.87a8.74,8.74,0,0,1-2.42.69,25.59,25.59,0,0,1-6,.39,25,25,0,0,1-6-1,8.23,8.23,0,0,1-2.32-.93,48.58,48.58,0,0,0,8.32,1.44A48.68,48.68,0,0,0,235.33,215.87Z" style="fill:#fff"></path><path d="M229.79,187.59a9.49,9.49,0,0,1-3,.23,9.36,9.36,0,0,1-3-.29,18,18,0,0,1,6.09.06Z" style="fill:#fff"></path><path d="M234.36,195.05a7.66,7.66,0,0,1-2.6,1,7.52,7.52,0,0,1-2.73.51,14.84,14.84,0,0,1,5.33-1.52Z" style="fill:#fff"></path><path d="M245.77,173.53a3.27,3.27,0,0,1-2.84.56,3.31,3.31,0,0,1-2.49-1.49,13.82,13.82,0,0,0,2.58,1A13.3,13.3,0,0,0,245.77,173.53Z" style="fill:#fff"></path><path d="M218.94,173c.07.11-.74.65-1.9.65s-2-.53-1.91-.64.88.13,1.9.12S218.87,172.83,218.94,173Z" style="fill:#fff"></path><path d="M219.89,156.43c0,.16-1.82-.18-4,.18s-3.78,1.2-3.85,1.06a8.59,8.59,0,0,1,7.84-1.24Z" style="fill:#fff"></path><path d="M251.14,157.47c-.06.15-2.16-.73-4.91-1s-5,.1-5-.06a13,13,0,0,1,9.93,1.07Z" style="fill:#fff"></path><path d="M243.56,129.11a2.25,2.25,0,0,1-.28.48c-.21.31-.49.77-.92,1.32a31.61,31.61,0,0,1-4,4.37,35.24,35.24,0,0,1-7.13,5.09,34.83,34.83,0,0,1-4.73,2.12A41.94,41.94,0,0,1,221.2,144a37.79,37.79,0,0,0-5.31,1.39,11.31,11.31,0,0,0-4.24,2.66,14.62,14.62,0,0,0-3.62,7.65,37.85,37.85,0,0,0-.47,5.82c0,.65,0,1.18,0,1.6a1.74,1.74,0,0,1,0,.56,2.73,2.73,0,0,1-.06-.56c0-.36-.05-.9-.07-1.59a32.45,32.45,0,0,1,.31-5.9,14.77,14.77,0,0,1,3.64-7.92,11.78,11.78,0,0,1,4.4-2.8,38.22,38.22,0,0,1,5.38-1.42A35.9,35.9,0,0,0,238.16,135a34.81,34.81,0,0,0,4-4.23C243.08,129.71,243.52,129.08,243.56,129.11Z" style="fill:#fff"></path><path d="M200.91,192.73a13.38,13.38,0,0,0,1-3.85,22.6,22.6,0,0,0-2.08-10.58c-.86-2.14-1.93-4.44-2.81-7a25.07,25.07,0,0,1-1-4.12,18.82,18.82,0,0,1-.09-4.51,19.76,19.76,0,0,1,3.31-9,18.71,18.71,0,0,1,3.44-3.8,26.75,26.75,0,0,1,4.42-2.86c3.14-1.66,6.37-2.89,9.26-4.5a16.13,16.13,0,0,0,6.79-6.37c1.4-2.68,2-5.58,3-8.1a13.22,13.22,0,0,1,2-3.41,10.5,10.5,0,0,1,2.87-2.3,10.29,10.29,0,0,1,6.12-1.24,10.49,10.49,0,0,1,4.45,1.59,9.79,9.79,0,0,1,2.25,2,5.14,5.14,0,0,1,.61.85,11.8,11.8,0,0,0-3-2.64,10.32,10.32,0,0,0-4.37-1.47,10.23,10.23,0,0,0-8.65,3.51,12.82,12.82,0,0,0-2,3.32c-1.06,2.47-1.59,5.38-3,8.15a16.79,16.79,0,0,1-7,6.6c-2.93,1.63-6.16,2.87-9.27,4.51a27,27,0,0,0-4.33,2.8,18.26,18.26,0,0,0-3.35,3.69,19.23,19.23,0,0,0-3.25,8.79,18.36,18.36,0,0,0,.06,4.39,24.46,24.46,0,0,0,1,4c.85,2.57,1.9,4.88,2.74,7,1.76,4.29,2.3,8.14,1.94,10.73a11.05,11.05,0,0,1-.74,2.89,7.55,7.55,0,0,1-.33.71A2,2,0,0,1,200.91,192.73Z" style="fill:#455a64"></path><path d="M267.53,158.22a7.44,7.44,0,0,1-1.36-.53,25.22,25.22,0,0,1-3.48-1.93,27.93,27.93,0,0,1-12.52-22.11,26.64,26.64,0,0,1,.13-4,7.21,7.21,0,0,1,.26-1.44,9.45,9.45,0,0,1-.05,1.46,30.89,30.89,0,0,0,0,3.94,28.82,28.82,0,0,0,12.36,21.83,30.21,30.21,0,0,0,3.36,2A9,9,0,0,1,267.53,158.22Z" style="fill:#455a64"></path><path d="M268.43,139.84s-.25.07-.7.1a10.24,10.24,0,0,1-1.91-.07,14.81,14.81,0,0,1-10.47-6.44,10.73,10.73,0,0,1-.92-1.68,2,2,0,0,1-.22-.66c.08,0,.5.86,1.44,2.13a16.28,16.28,0,0,0,10.23,6.29C267.43,139.78,268.42,139.75,268.43,139.84Z" style="fill:#455a64"></path><path d="M268.61,174.58c.29-.14,11.75-4.09,11.94,7.79s-11.78,9.61-11.81,9.27S268.61,174.58,268.61,174.58Z" style="fill:#ffbe9d"></path><path d="M272.3,187.08c.05,0,.21.14.56.3a2.09,2.09,0,0,0,1.55,0c1.25-.48,2.27-2.49,2.3-4.63a6.88,6.88,0,0,0-.63-3,2.36,2.36,0,0,0-1.58-1.56,1,1,0,0,0-1.21.59c-.15.33-.08.57-.14.59s-.26-.2-.17-.69a1.31,1.31,0,0,1,.46-.75,1.55,1.55,0,0,1,1.14-.32,2.93,2.93,0,0,1,2.19,1.81,7,7,0,0,1,.76,3.3c0,2.39-1.23,4.65-2.93,5.17a2.23,2.23,0,0,1-1.9-.28C272.33,187.37,272.26,187.1,272.3,187.08Z" style="fill:#eb996e"></path><circle cx="271.41" cy="178.95" r="18.26" transform="translate(-47.04 244.33) rotate(-45)" style="fill:#455a64"></circle><path d="M277.94,197.21l-18.61-7.74-.18-18.88,9.46-9.49,23,8.29L289.28,185S282.53,196.43,277.94,197.21Z" style="fill:#40AD02"></path><path d="M284.67,173.07s1-23.62-3.13-32.89-13.06-13-13.06-13h0a33,33,0,0,1,5.68,17.48l.75,23.93-5.31,9.13,7.93,5.07Z" style="fill:#40AD02"></path><polygon points="274.21 146.16 283.61 148.23 284.11 152.14 274.35 150.87 274.21 146.16" style="fill:#e0e0e0"></polygon><polygon points="284.11 158.89 291.62 169.4 278.71 170.59 268.61 161.1 275.63 156.72 284.11 158.89" style="fill:#40AD02"></polygon><path d="M284.51,158.48s0,.13.06.38.05.63.07,1.12c.05,1,.06,2.39,0,4.16a89.28,89.28,0,0,1-1.41,14l-.05.27-.27-.08-4.2-1.21-6-1.73-.2-.06,0-.21c.45-5.09.84-9.51,1.13-12.77.15-1.52.28-2.77.38-3.71a7.49,7.49,0,0,1,.19-1.34,8.2,8.2,0,0,1,0,1.35c-.06,1-.14,2.2-.23,3.73-.24,3.25-.57,7.69-.95,12.79l-.18-.27,5.95,1.72,4.2,1.22-.32.2a104.38,104.38,0,0,0,1.58-13.94c.08-1.75.12-3.17.13-4.14A11,11,0,0,1,284.51,158.48Z" style="fill:#263238"></path><path d="M272.85,159.65a6.53,6.53,0,0,1-.69.85l-2,2.29c-1.81,2-4.3,4.75-7.22,8l.06-.16c0,3.13,0,6.6,0,10.26v5.93l-.15-.23,12.4,6,3.6,1.78a8.24,8.24,0,0,1,1.27.7,8.48,8.48,0,0,1-1.34-.54l-3.67-1.65L262.63,187l-.15-.07v-.16c0-1.89,0-3.88,0-5.93,0-3.66,0-7.13,0-10.26v-.09l.06-.07,7.36-7.83,2.13-2.2A5.25,5.25,0,0,1,272.85,159.65Z" style="fill:#263238"></path><polygon points="274.91 186.79 248.22 202.68 246.77 205.42 239 208.25 235.49 206.11 236.08 202.38 242.79 198.52 245.83 198.89 270.9 182.2 274.91 186.79" style="fill:#40AD02"></polygon><path d="M263,194.05a29.44,29.44,0,0,1,4.48-3.2,29,29,0,0,1,4.77-2.76,30.28,30.28,0,0,1-4.48,3.2A30,30,0,0,1,263,194.05Z" style="fill:#263238"></path><path d="M269.08,183.11c0-.06.37-.31,1.11-.37a3.63,3.63,0,0,1,2.69.93,3.69,3.69,0,0,1,1.17,2.59c0,.74-.22,1.16-.27,1.14s0-.45-.1-1.11a3.88,3.88,0,0,0-1.15-2.24,3.81,3.81,0,0,0-2.33-.94C269.53,183.07,269.11,183.19,269.08,183.11Z" style="fill:#263238"></path><path d="M262.14,188.23a28.48,28.48,0,0,1,3.59-2.7,27.43,27.43,0,0,1,3.72-2.53,24.54,24.54,0,0,1-7.31,5.23Z" style="fill:#263238"></path><path d="M280.6,181.51a1.56,1.56,0,0,1,1.92-.27l0,0a1.56,1.56,0,0,1,.73.94,1.53,1.53,0,0,1-2.71,1.28A1.56,1.56,0,0,1,280.6,181.51Z" style="fill:#fff"></path><path d="M276.1,180a1.59,1.59,0,0,1,1.92-.27h0a1.53,1.53,0,0,1,.73.94,1.53,1.53,0,1,1-2.6-.66Z" style="fill:#fff"></path><path d="M279.65,194.69c-.07-.07,1-1.21,2.54-3.24a39.27,39.27,0,0,0,7.39-18.13c.34-2.51.35-4.09.44-4.09a4.29,4.29,0,0,1,.07,1.11,24.65,24.65,0,0,1-.15,3,35.25,35.25,0,0,1-7.46,18.3,25,25,0,0,1-2,2.27A4.53,4.53,0,0,1,279.65,194.69Z" style="fill:#fff"></path><path d="M283.09,152.83a3,3,0,0,1,.18.91c.09.58.18,1.43.27,2.49a81.57,81.57,0,0,1,.27,8.26,82.55,82.55,0,0,1-.54,8.25c-.13,1-.25,1.9-.36,2.48a3,3,0,0,1-.21.9,28.59,28.59,0,0,1,.2-3.41c.16-2.11.34-5,.39-8.23s0-6.12-.11-8.23A26.81,26.81,0,0,1,283.09,152.83Z" style="fill:#fff"></path><path d="M277.69,135.13a21.26,21.26,0,0,1,2.82,5.33,20.94,20.94,0,0,1,1.68,5.78c-.15,0-.92-2.53-2.16-5.59S277.55,135.21,277.69,135.13Z" style="fill:#fff"></path><path d="M248.12,202.22a4.65,4.65,0,0,1,.91-.6l2.54-1.5c2.15-1.26,5.11-3,8.32-5.07s6.06-4,8.11-5.39l2.44-1.67a4.28,4.28,0,0,1,.93-.56,4.38,4.38,0,0,1-.81.73c-.54.44-1.34,1.06-2.34,1.8-2,1.5-4.83,3.48-8.05,5.53s-6.22,3.77-8.42,4.95c-1.1.59-2,1.05-2.63,1.36A4.47,4.47,0,0,1,248.12,202.22Z" style="fill:#fff"></path></g></svg>